<svg width="100" height="125" xmlns="http://www.w3.org/2000/svg">

 <g>
  <title>background</title>
  <rect fill="none" id="canvas_background" height="402" width="582" y="-1" x="-1"/>
 </g>
 <g>
  <title>Layer 1</title>
  <g stroke="null" id="svg_1">
   <path stroke="null" id="svg_2" d="m33.8,33c2.1,0.4 5.5,-1.6 9.7,-4.1c6.5,-3.8 15.2,-8.8 26.1,-9.8c-0.4,-0.5 -0.9,-0.9 -1.3,-1c-6,-2.5 -23.2,-3.1 -28,-2.4c-4.4,0.6 -7.4,4.9 -10.5,11.7c0.3,2.5 1.4,5.1 4,5.6z"/>
   <path stroke="null" id="svg_3" d="m93.3,46.3c-3.8,-4.6 -10.3,-8.4 -18.3,-11c-1.1,-5.6 -2.5,-11.5 -4.4,-14.8c-11,0.8 -19.7,5.9 -26.3,9.7c-4.2,2.5 -7.4,4.3 -9.9,4.3c-0.3,0 -0.6,0 -0.8,-0.1c-2.7,-0.5 -4.1,-2.5 -4.8,-4.8c-0.7,1.8 -1.3,4.1 -1.9,6.5c-0.1,0 -0.1,0.1 -0.2,0.1c0,0 -19.9,8.2 -21.4,20.2s6.7,28.2 37.5,28.2c20.9,0 61,-25.7 50.5,-38.3zm-19.4,6c-4.4,5.3 -27.8,18.5 -40.3,13.6s-9.5,-12.9 -9.5,-12.9l0.9,-5.5c0,0 4,8.1 15.3,8.4c11.2,0.3 30.3,-10.9 35.4,-17c-0.1,0 2.6,8 -1.8,13.4z"/>
  </g>
 </g>
</svg>